# xmcd
#
# Track frame offsets: 
#        150
#        19990
#        38986
#        58602
#        72402
#        96783
#        115753
#        136055
#        154768
#        172253
#        193191
#        213331
#
# Disc length: 3070 seconds
#
# Revision: 0
# Processed by: cddbd v1.5.2PL0 Copyright (c) Steve Scherf et al.
# Submitted via: ExactAudioCopy v0.99pb5
#
DISCID=ad0bfc0c
DTITLE=John O'Leary Band - Two For The Show - CD1 - Sins
DYEAR=2010
DGENRE=Blues
TTITLE0=Early In The Morning
TTITLE1=Snatch It Back
TTITLE2=I'm Tired
TTITLE3=Blue Water
TTITLE4=Who's Been Talking
TTITLE5=Waiting For You
TTITLE6=And Everything
TTITLE7=House Of Ice
TTITLE8=Black Cat Bone
TTITLE9=Move Away
TTITLE10=Chiswick Roundabout
TTITLE11=Save My Soul
EXTD=
EXTT0=
EXTT1=
EXTT2=
EXTT3=
EXTT4=
EXTT5=
EXTT6=
EXTT7=
EXTT8=
EXTT9=
EXTT10=
EXTT11=
PLAYORDER=
